<?xml version="1.0" encoding="utf-8"?>
<svg viewBox="69.039 409.693 897.95 180.393" xmlns="http://www.w3.org/2000/svg">
  <g transform="matrix(1.766629, 0, 0, 1.766629, 604.15332, 502.453705)" style="" id="403406">
    <path d="M -154.747 18.28 L -162.884 33.963 L -194.722 -27.473 L -177.82 -27.473 L -154.747 18.28 Z M -160.565 -2.632 L -147.947 -27.473 L -131.045 -27.473 L -152.35 13.641 L -160.565 -2.632 Z M -121.613 -18.197 L -113.477 -33.88 L -81.638 27.556 L -98.54 27.556 L -121.613 -18.197 Z M -115.796 2.714 L -128.413 27.556 L -145.315 27.556 L -124.011 -13.559 L -115.796 2.714 Z M -62.381 11.833 L -78.103 11.833 L -78.103 -27.473 L -62.381 -27.473 L -62.381 11.833 Z M -78.103 15.764 L -23.074 15.764 L -23.074 27.556 L -78.103 27.556 L -78.103 15.764 Z M 0.511 -3.968 L 0.511 27.556 L -15.212 27.556 L -15.212 -27.473 L 5.227 -27.473 L 28.3 18.28 L 20.164 33.963 L 0.511 -3.968 Z M 55.54 -27.473 L 55.54 27.556 L 39.817 27.556 L 39.817 -3.968 L 30.698 13.641 L 22.483 -2.632 L 35.1 -27.473 L 55.54 -27.473 Z M 63.4 -27.473 L 79.122 -27.473 L 79.122 27.556 L 63.4 27.556 L 63.4 -27.473 Z M 86.984 15.764 L 102.706 15.764 L 102.706 27.556 L 86.984 27.556 L 86.984 15.764 Z M 110.568 -27.473 L 126.29 -27.473 L 126.29 27.556 L 110.568 27.556 L 110.568 -27.473 Z M 177.389 -11.751 C 177.389 -14.371 176.079 -15.681 173.458 -15.681 L 173.458 -27.473 C 186.56 -27.473 193.111 -22.232 193.111 -11.751 L 193.111 11.833 C 193.111 22.315 186.56 27.556 173.458 27.556 L 157.735 27.556 L 157.735 15.764 L 173.458 15.764 C 176.079 15.764 177.389 14.454 177.389 11.833 L 177.389 -11.751 Z M 149.874 11.833 C 149.874 14.454 151.184 15.764 153.805 15.764 L 153.805 27.556 C 140.702 27.556 134.151 22.315 134.151 11.833 L 134.151 -11.751 C 134.151 -22.232 140.702 -27.473 153.805 -27.473 L 169.527 -27.473 L 169.527 -15.681 L 153.805 -15.681 C 151.184 -15.681 149.874 -14.371 149.874 -11.751 L 149.874 11.833 Z" style="fill: rgb(255, 255, 255); line-height: 82.4169px; white-space: pre;"/>
  </g>
  <g transform="matrix(1.4972, 0, 0, 1.4972, 164.392197, 499.010101)" id="g-2">
    <path style="stroke: none; stroke-width: 1; stroke-dasharray: none; stroke-linecap: butt; stroke-dashoffset: 0; stroke-linejoin: miter; stroke-miterlimit: 4; is-custom-font: none; font-file-url: none; fill: rgb(181,172,166); fill-rule: nonzero; opacity: 1;" transform=" translate(-652, -96)" d="M 652 46 c 27.6 0 50 22.4 50 50 s -22.4 50 -50 50 s -50 -22.4 -50 -50 S 624.4 46 652 46 z" stroke-linecap="round"/>
  </g>
  <g transform="matrix(0.9273, 0, 0, 0.9273, 164.859894, 499.540192)" id="g-4">
    <path style="stroke: none; stroke-width: 1; stroke-dasharray: none; stroke-linecap: butt; stroke-dashoffset: 0; stroke-linejoin: miter; stroke-miterlimit: 4; is-custom-font: none; font-file-url: none; fill: rgb(34,32,32); fill-rule: nonzero; opacity: 1;" transform=" translate(-652, -96)" d="M 652 46 c 27.6 0 50 22.4 50 50 s -22.4 50 -50 50 s -50 -22.4 -50 -50 S 624.4 46 652 46 z" stroke-linecap="round"/>
  </g>
  <g transform="matrix(0.5954, 0, 0, 0.5954, 207.240799, 460.69101)" id="g-8">
    <path style="stroke: none; stroke-width: 1; stroke-dasharray: none; stroke-linecap: butt; stroke-dashoffset: 0; stroke-linejoin: miter; stroke-miterlimit: 4; is-custom-font: none; font-file-url: none; fill: rgb(255,255,255); fill-rule: nonzero; opacity: 1;" transform=" translate(-652, -96)" d="M 652 46 c 27.6 0 50 22.4 50 50 s -22.4 50 -50 50 s -50 -22.4 -50 -50 S 624.4 46 652 46 z" stroke-linecap="round"/>
  </g>
</svg>