<?xml version="1.0" encoding="utf-8"?>
<svg viewBox="69.039 409.693 897.95 180.393" xmlns="http://www.w3.org/2000/svg">
  <g transform="matrix(1.766629, 0, 0, 1.766629, 604.15332, 502.453705)" style="" id="403406">
    <path font-family="Joti One" font-size="100" font-style="normal" font-weight="normal" style="stroke-dasharray: none; stroke-dashoffset: 0; stroke-linejoin: miter; stroke-miterlimit: 4; fill-rule: nonzero; opacity: 1; white-space: pre; paint-order: fill markers; stroke-width: 3.96235px; stroke: rgb(218, 211, 205); fill: rgb(218, 211, 205);" d="M-194.70-16.59L-173.30-19.89L-166.70 18.41L-165.90 18.41L-153-19.59L-144.90-17.39L-164.40 31.61L-172.50 32.91L-194.70-16.59ZM-128.40 33.71L-128.40 33.71Q-130.10 33.71-130.90 33.61L-130.90 33.61Q-134.30 31.31-136.35 26.76Q-138.40 22.21-138.40 17.31L-138.40 17.31Q-138.40 10.91-133.55 8.01Q-128.70 5.11-115.70 5.11L-115.70 5.11Q-110.90 5.11-105.70 5.81L-105.70 5.81L-105.90 3.61Q-106.30-0.39-109.70-2.74Q-113.10-5.09-118.40-5.09Q-123.70-5.09-129.00-1.79L-129.00-1.79L-133.40-16.29Q-124.80-19.79-113.80-19.79Q-102.80-19.79-96.40-14.84Q-90.00-9.89-90.00 0.61L-90.00 0.61Q-90.00 3.01-90.20 4.41L-90.20 4.41L-93.00 32.01L-102.90 32.91L-104.40 18.41L-105.20 18.41Q-108.60 25.61-114.60 29.66Q-120.60 33.71-128.40 33.71ZM-105.30 10.01L-105.30 10.01L-110.60 9.91Q-117.20 9.91-121.40 10.61L-121.40 10.61Q-122.80 13.41-122.80 15.61Q-122.80 17.81-122.20 19.81Q-121.60 21.81-120.90 22.51L-120.90 22.51Q-108.90 20.61-105.30 10.01ZM-61.90 32.01L-71.80 32.91L-76.90-36.89L-55.50-40.19L-61.90 32.01ZM-4.20-20.89L-4.20-20.89Q-2.30-20.89-0.50-20.29L-0.50-20.29Q3.40-15.49 5.80-2.89L5.80-2.89L6.60-2.89Q10.20-11.29 14.95-16.09Q19.70-20.89 24.80-20.89L24.80-20.89Q26.70-20.89 28.50-20.29L28.50-20.29Q33.60-14.09 35.50 1.41Q37.40 16.91 37.40 32.01L37.40 32.01L19.40 32.91Q19.40 9.31 17.90-8.99L17.90-8.99Q5.90-4.19 2.00 32.01L2.00 32.01L-9.60 32.91Q-9.60 9.31-11.10-8.99L-11.10-8.99Q-15.60-7.19-19.85 0.56Q-24.10 8.31-26.10 24.71L-26.10 24.71L-27.00 32.01L-36.90 32.91L-42.00-16.69L-20.60-19.99L-22.50-4.39L-21.80-4.39Q-14.10-20.89-4.20-20.89ZM66.50 32.01L56.60 32.91L51.50-16.59L72.90-19.89L66.50 32.01ZM54.65-27.74Q51.90-30.49 51.90-34.29Q51.90-38.09 54.65-40.84Q57.40-43.59 61.20-43.59Q65.00-43.59 67.75-40.84Q70.50-38.09 70.50-34.29Q70.50-30.49 67.75-27.74Q65.00-24.99 61.20-24.99Q57.40-24.99 54.65-27.74ZM87.15 29.96Q84.90 27.51 84.90 23.61Q84.90 19.71 87.15 17.26Q89.40 14.81 94.20 14.81Q99.00 14.81 101.25 17.26Q103.50 19.71 103.50 23.61Q103.50 27.51 101.25 29.96Q99.00 32.41 94.20 32.41Q89.40 32.41 87.15 29.96ZM130.50 32.01L120.60 32.91L115.50-16.59L136.90-19.89L130.50 32.01ZM118.65-27.74Q115.90-30.49 115.90-34.29Q115.90-38.09 118.65-40.84Q121.40-43.59 125.20-43.59Q129.00-43.59 131.75-40.84Q134.50-38.09 134.50-34.29Q134.50-30.49 131.75-27.74Q129.00-24.99 125.20-24.99Q121.40-24.99 118.65-27.74ZM192.70 13.01L192.70 13.01Q192.70 23.91 187.95 28.86Q183.20 33.81 170.40 33.81Q157.60 33.81 150.40 28.01L150.40 28.01Q148.90 20.81 148.90 13.61Q148.90 6.41 150.95 0.06Q153.00-6.29 156.10-10.79L156.10-10.79Q162.60-19.99 167.70-22.49L167.70-22.49Q177.30-17.59 184.60-9.19L184.60-9.19Q192.70 0.01 192.70 13.01ZM181.10 10.31L181.10 10.31Q181.10 0.81 177.10-7.09L177.10-7.09Q168.80-2.69 163.40 6.31Q158.00 15.31 158.00 24.51L158.00 24.51Q161.20 25.11 167.20 25.11Q173.20 25.11 179.50 23.01L179.50 23.01Q181.10 16.91 181.10 10.31Z"/>
  </g>
  <g transform="matrix(1.4972, 0, 0, 1.4972, 164.392197, 499.010101)" id="g-2">
    <path style="stroke: none; stroke-width: 1; stroke-dasharray: none; stroke-linecap: butt; stroke-dashoffset: 0; stroke-linejoin: miter; stroke-miterlimit: 4; is-custom-font: none; font-file-url: none; fill: rgb(181,172,166); fill-rule: nonzero; opacity: 1;" transform=" translate(-652, -96)" d="M 652 46 c 27.6 0 50 22.4 50 50 s -22.4 50 -50 50 s -50 -22.4 -50 -50 S 624.4 46 652 46 z" stroke-linecap="round"/>
  </g>
  <g transform="matrix(0.9273, 0, 0, 0.9273, 164.859894, 499.540192)" id="g-4">
    <path style="stroke: none; stroke-width: 1; stroke-dasharray: none; stroke-linecap: butt; stroke-dashoffset: 0; stroke-linejoin: miter; stroke-miterlimit: 4; is-custom-font: none; font-file-url: none; fill: rgb(34,32,32); fill-rule: nonzero; opacity: 1;" transform=" translate(-652, -96)" d="M 652 46 c 27.6 0 50 22.4 50 50 s -22.4 50 -50 50 s -50 -22.4 -50 -50 S 624.4 46 652 46 z" stroke-linecap="round"/>
  </g>
  <g transform="matrix(0.5954, 0, 0, 0.5954, 207.240799, 460.69101)" id="g-8">
    <path style="stroke: none; stroke-width: 1; stroke-dasharray: none; stroke-linecap: butt; stroke-dashoffset: 0; stroke-linejoin: miter; stroke-miterlimit: 4; is-custom-font: none; font-file-url: none; fill: rgb(255,255,255); fill-rule: nonzero; opacity: 1;" transform=" translate(-652, -96)" d="M 652 46 c 27.6 0 50 22.4 50 50 s -22.4 50 -50 50 s -50 -22.4 -50 -50 S 624.4 46 652 46 z" stroke-linecap="round"/>
  </g>
</svg>