<?xml version="1.0" encoding="utf-8"?>
<svg viewBox="69.039 409.693 897.95 180.393" xmlns="http://www.w3.org/2000/svg">
  <g transform="matrix(1.766629, 0, 0, 1.766629, 604.15332, 502.453705)" style="" id="403406">
    <text style="fill: rgb(52, 73, 94); font-family: Revamped; font-size: 80.5px; line-height: 82.4169px; white-space: pre;" x="-198.291" y="25.858">valmi.io</text>
  </g>
  <g transform="matrix(1.4972, 0, 0, 1.4972, 164.392197, 499.010101)" id="g-2">
    <path style="stroke: none; stroke-width: 1; stroke-dasharray: none; stroke-linecap: butt; stroke-dashoffset: 0; stroke-linejoin: miter; stroke-miterlimit: 4; is-custom-font: none; font-file-url: none; fill: rgb(181,172,166); fill-rule: nonzero; opacity: 1;" transform=" translate(-652, -96)" d="M 652 46 c 27.6 0 50 22.4 50 50 s -22.4 50 -50 50 s -50 -22.4 -50 -50 S 624.4 46 652 46 z" stroke-linecap="round"/>
  </g>
  <g transform="matrix(0.9273, 0, 0, 0.9273, 164.859894, 499.540192)" id="g-4">
    <path style="stroke: none; stroke-width: 1; stroke-dasharray: none; stroke-linecap: butt; stroke-dashoffset: 0; stroke-linejoin: miter; stroke-miterlimit: 4; is-custom-font: none; font-file-url: none; fill: rgb(34,32,32); fill-rule: nonzero; opacity: 1;" transform=" translate(-652, -96)" d="M 652 46 c 27.6 0 50 22.4 50 50 s -22.4 50 -50 50 s -50 -22.4 -50 -50 S 624.4 46 652 46 z" stroke-linecap="round"/>
  </g>
  <g transform="matrix(0.5954, 0, 0, 0.5954, 207.240799, 460.69101)" id="g-8">
    <path style="stroke: none; stroke-width: 1; stroke-dasharray: none; stroke-linecap: butt; stroke-dashoffset: 0; stroke-linejoin: miter; stroke-miterlimit: 4; is-custom-font: none; font-file-url: none; fill: rgb(255,255,255); fill-rule: nonzero; opacity: 1;" transform=" translate(-652, -96)" d="M 652 46 c 27.6 0 50 22.4 50 50 s -22.4 50 -50 50 s -50 -22.4 -50 -50 S 624.4 46 652 46 z" stroke-linecap="round"/>
  </g>
</svg>